# xmcd
#
# Track frame offsets:
#	150
#	10368
#	22220
#	32440
#	44926
#	56135
#	65207
#	74539
#	87839
#	99495
#	108661
#
# Disc length: 1629 seconds
#
# Revision: 0
# Processed by: cddbd v1.5.2PL0 Copyright (c) Steve Scherf et al.
# Submitted via: audiograbber 1.83.01
#
DISCID=a5065b0b
DTITLE=Dave Dudley - One more mile
DYEAR=1900
DGENRE=Country
TTITLE0=One more mile
TTITLE1=Angel
TTITLE2=Gamblin' man
TTITLE3=I hope I never love that much again
TTITLE4=But for me it's not
TTITLE5=When I get back to normal
TTITLE6=Please let me prove (my love for you)
TTITLE7=Ballad of forty dollars
TTITLE8=Wichita lineman
TTITLE9=I always take a train
TTITLE10=I'll be moving along
EXTD=
EXTT0=
EXTT1=
EXTT2=
EXTT3=
EXTT4=
EXTT5=
EXTT6=
EXTT7=
EXTT8=
EXTT9=
EXTT10=
PLAYORDER=
